<svg xmlns="http://www.w3.org/2000/svg" viewBox="0 0 128 128"><defs><style>.cls-1{fill:#8bbd5b;}.cls-2{fill:#fff;}</style></defs><g id="Layer_2" data-name="Layer 2"><g id="Layer_1-2" data-name="Layer 1"><rect class="cls-1" width="128" height="128" rx="16.07"/><path class="cls-2" d="M98.57,82.39,76.26,47.06a8.62,8.62,0,0,1-1.32-4.58V28.64h2.78a2.9,2.9,0,0,0,2.93-2.72,2.86,2.86,0,0,0-2.71-3H49.31a2.92,2.92,0,0,0-2.94,2.72,2.87,2.87,0,0,0,2.72,3h3V42.48a8.42,8.42,0,0,1-1.32,4.57L28.46,82.39A13.21,13.21,0,0,0,28,95.93a13.59,13.59,0,0,0,12,7h47.1a13.59,13.59,0,0,0,12-7A13.23,13.23,0,0,0,98.57,82.39Zm-43-32.28a14.24,14.24,0,0,0,2.21-7.63V29.36a.71.71,0,0,1,.71-.72h10a.72.72,0,0,1,.72.72V42.48a14.32,14.32,0,0,0,2.2,7.63L81.75,66.45a1.42,1.42,0,0,1-.44,2,1.41,1.41,0,0,1-.77.22H46.48a1.43,1.43,0,0,1-1.43-1.43,1.46,1.46,0,0,1,.22-.76Z"/></g></g></svg>