<svg xmlns="http://www.w3.org/2000/svg" viewBox="0 0 128 128"><defs><style>.cls-1{fill:#e38056;}.cls-2{fill:#fff;}</style></defs><g id="Layer_2" data-name="Layer 2"><g id="Layer_1-2" data-name="Layer 1"><rect class="cls-1" width="128" height="128" rx="16.07"/><path class="cls-2" d="M99.83,41.07a7.17,7.17,0,0,0-7.17,7.17,7.08,7.08,0,0,0,.5,2.61L78.08,65.93a7.15,7.15,0,0,0-5.23,0L62.07,55.15a7.17,7.17,0,1,0-13.34,0L30.78,73.09a7.17,7.17,0,1,0,4.06,4.06l17.94-18a7.15,7.15,0,0,0,5.23,0L68.79,70a7.17,7.17,0,1,0,13.34,0L97.21,54.9a7.17,7.17,0,0,0,5.24-13.34A7.29,7.29,0,0,0,99.83,41.07Z"/></g></g></svg>