<svg xmlns="http://www.w3.org/2000/svg" viewBox="0 0 128 128"><defs><style>.cls-1{fill:#e38056;}.cls-2{fill:#fff;}</style></defs><g id="Layer_2" data-name="Layer 2"><g id="Layer_1-2" data-name="Layer 1"><rect class="cls-1" width="128" height="128" rx="16.07"/><path class="cls-2" d="M105,57c-.23-.19-2.23-1.71-6.53-1.71a20.21,20.21,0,0,0-3.38.29A12.84,12.84,0,0,0,89.41,47l-1.15-.67-.75,1.08a16.09,16.09,0,0,0-2,4.76,11.31,11.31,0,0,0,1.34,8.88A15.89,15.89,0,0,1,81,62.49H28.3A2.48,2.48,0,0,0,25.81,65v0a37.62,37.62,0,0,0,2.31,13.57c1.82,4.75,4.52,8.29,8,10.44,4,2.41,10.36,3.79,17.6,3.79a54,54,0,0,0,9.75-.89,40.41,40.41,0,0,0,12.77-4.65,34.84,34.84,0,0,0,8.68-7.13,47.4,47.4,0,0,0,8.5-14.69h.74a12.21,12.21,0,0,0,8.94-3.38,9.87,9.87,0,0,0,2.37-3.5l.34-1Z"/><path class="cls-2" d="M33.2,61h7a.62.62,0,0,0,.62-.62h0V54a.63.63,0,0,0-.62-.63h-7a.63.63,0,0,0-.62.63h0v6.31a.65.65,0,0,0,.62.63h0"/><path class="cls-2" d="M42.92,61h7a.63.63,0,0,0,.63-.62h0V54A.63.63,0,0,0,50,53.4h-7a.63.63,0,0,0-.62.63v6.31a.65.65,0,0,0,.62.63"/><path class="cls-2" d="M52.83,61h7a.63.63,0,0,0,.63-.62h0V54a.63.63,0,0,0-.63-.63h-7a.63.63,0,0,0-.63.63h0v6.31a.61.61,0,0,0,.59.63h0"/><path class="cls-2" d="M62.59,61h7a.63.63,0,0,0,.63-.62V54a.63.63,0,0,0-.63-.63h-7A.63.63,0,0,0,62,54h0v6.31a.63.63,0,0,0,.63.63h0"/><path class="cls-2" d="M42.92,51.94h7a.65.65,0,0,0,.63-.62V45a.63.63,0,0,0-.63-.62h-7a.62.62,0,0,0-.62.62v6.32a.68.68,0,0,0,.62.63"/><path class="cls-2" d="M52.83,51.94h7a.65.65,0,0,0,.63-.62V45a.63.63,0,0,0-.63-.62h-7a.63.63,0,0,0-.63.62h0v6.32a.63.63,0,0,0,.63.63"/><path class="cls-2" d="M62.59,51.94h7a.65.65,0,0,0,.63-.62V45a.65.65,0,0,0-.63-.62h-7A.63.63,0,0,0,62,45h0v6.32a.65.65,0,0,0,.63.63"/><path class="cls-2" d="M62.59,42.88h7a.63.63,0,0,0,.63-.63V35.92a.66.66,0,0,0-.63-.63h-7a.63.63,0,0,0-.63.63h0v6.32a.65.65,0,0,0,.63.62"/><path class="cls-2" d="M72.42,61h7a.62.62,0,0,0,.62-.62V54a.63.63,0,0,0-.62-.63h-7a.63.63,0,0,0-.63.63h0v6.31a.65.65,0,0,0,.63.63"/></g></g></svg>