<svg xmlns="http://www.w3.org/2000/svg" viewBox="0 0 128 128"><defs><style>.cls-1{fill:#e38056;}.cls-2{fill:#fff;}</style></defs><g id="Layer_2" data-name="Layer 2"><g id="Layer_1-2" data-name="Layer 1"><rect class="cls-1" width="128" height="128" rx="16.07"/><path class="cls-2" d="M101.33,104h-72A5.33,5.33,0,0,1,24,98.67v-72a2.67,2.67,0,1,1,5.33,0v72h72a2.67,2.67,0,1,1,0,5.33Z"/><path class="cls-2" d="M47.33,93.33H40.67a6,6,0,0,1-6-6V62a6,6,0,0,1,6-6h6.66a6,6,0,0,1,6,6V87.33A6,6,0,0,1,47.33,93.33Z"/><path class="cls-2" d="M71.33,93.33H64.67a6,6,0,0,1-6-6V54a6,6,0,0,1,6-6h6.66a6,6,0,0,1,6,6V87.33A6,6,0,0,1,71.33,93.33Z"/><path class="cls-2" d="M95.27,93.33H88.61a6,6,0,0,1-6-6v-44a6,6,0,0,1,6-6h6.66a6,6,0,0,1,6,6v44A6,6,0,0,1,95.27,93.33Z"/></g></g></svg>