<svg xmlns="http://www.w3.org/2000/svg" viewBox="0 0 128 128"><defs><style>.cls-1{fill:#e38056;}.cls-2{fill:#fff;}</style></defs><g id="Layer_2" data-name="Layer 2"><g id="Layer_1-2" data-name="Layer 1"><rect class="cls-1" width="128" height="128" rx="16.07"/><path class="cls-2" d="M38.83,100.28H33.49a4,4,0,0,1-4-4v-24a4,4,0,0,1,4-4h5.34a4,4,0,0,1,4,4v24A4,4,0,0,1,38.83,100.28Z"/><path class="cls-2" d="M76.16,100.28H70.83a4,4,0,0,1-4-4v-40a4,4,0,0,1,4-4h5.33a4,4,0,0,1,4,4v40A4,4,0,0,1,76.16,100.28Z"/><path class="cls-2" d="M94.83,100.28H89.49a4,4,0,0,1-4-4V37.61a4,4,0,0,1,4-4h5.34a4,4,0,0,1,4,4V96.28A4,4,0,0,1,94.83,100.28Z"/><path class="cls-2" d="M57.49,100.28H52.16a4,4,0,0,1-4-4v-72a4,4,0,0,1,4-4h5.33a4,4,0,0,1,4,4v72A4,4,0,0,1,57.49,100.28Z"/></g></g></svg>