<svg xmlns="http://www.w3.org/2000/svg" viewBox="0 0 128 128"><defs><style>.cls-1{fill:#6da9e3;}.cls-2{fill:#fff;}</style></defs><g id="Layer_2" data-name="Layer 2"><g id="Layer_1-2" data-name="Layer 1"><rect class="cls-1" width="128" height="128" rx="16.07"/><path class="cls-2" d="M85.88,91.5H45.25A22.05,22.05,0,0,1,30.33,86,19.29,19.29,0,0,1,24,71.5a18.71,18.71,0,0,1,6.05-14.25A22.93,22.93,0,0,1,40.86,52a2.5,2.5,0,0,0,1.78-1.42,24.3,24.3,0,0,1,6.57-8.75A22.76,22.76,0,0,1,64,36.5a24,24,0,0,1,16.74,6.7,27.48,27.48,0,0,1,7.69,14.38,2.46,2.46,0,0,0,1.89,1.93C97.44,61.1,104,66.25,104,75.25c0,5.22-1.91,9.5-5.53,12.38C95.29,90.16,90.93,91.5,85.88,91.5Z"/></g></g></svg>