<svg xmlns="http://www.w3.org/2000/svg" viewBox="0 0 128 128"><defs><style>.cls-1{fill:#6da9e3;}.cls-2{fill:#fff;}</style></defs><g id="Layer_2" data-name="Layer 2"><g id="Layer_1-2" data-name="Layer 1"><rect class="cls-1" width="128" height="128" rx="16.07"/><path class="cls-2" d="M64,94.71a77.23,77.23,0,0,1-28.2-5.53,36.15,36.15,0,0,1-7.79-5,.73.73,0,0,0-1,.13.77.77,0,0,0-.14.44V87c0,5,4.19,9.51,11.81,12.65C45.48,102.45,54.48,104,64,104s18.52-1.55,25.33-4.36C97,96.5,101.14,92,101.14,87V84.75a.71.71,0,0,0-1.15-.57,36.15,36.15,0,0,1-7.79,5A77.23,77.23,0,0,1,64,94.71Z"/><path class="cls-2" d="M101.14,40.88c-.14-4.94-4.31-9.36-11.78-12.48C82.53,25.56,73.53,24,64,24s-18.52,1.56-25.34,4.4C31.2,31.51,27,35.92,26.87,40.85V44a7,7,0,0,0,2.61,4.42A32.25,32.25,0,0,0,38,53.37a71.11,71.11,0,0,0,26,5.09,70.91,70.91,0,0,0,26-5.1,32,32,0,0,0,8.53-5A6.89,6.89,0,0,0,101.14,44Z"/><path class="cls-2" d="M92.2,58.64A77,77,0,0,1,64,64.18a77,77,0,0,1-28.2-5.54,35,35,0,0,1-7.79-5,.72.72,0,0,0-1,.14.74.74,0,0,0-.14.44v5.49c0,1.15.93,2.59,2.61,4.06a32.24,32.24,0,0,0,8.53,5,71.11,71.11,0,0,0,26,5.09,71.12,71.12,0,0,0,26-5.1,32,32,0,0,0,8.53-4.95c1.68-1.47,2.61-2.91,2.61-4.06V54.22a.71.71,0,0,0-1.15-.57A35.39,35.39,0,0,1,92.2,58.64Z"/><path class="cls-2" d="M92.2,74A77,77,0,0,1,64,79.54,77,77,0,0,1,35.8,74,35.78,35.78,0,0,1,28,69a.73.73,0,0,0-1,.13.77.77,0,0,0-.14.44v5.32c0,1.15.93,2.59,2.61,4.06a32,32,0,0,0,8.53,5A71.12,71.12,0,0,0,64,89a71.12,71.12,0,0,0,26-5.1,32,32,0,0,0,8.53-5c1.68-1.47,2.61-2.91,2.61-4V69.57a.71.71,0,0,0-.71-.71A.77.77,0,0,0,100,69,35.78,35.78,0,0,1,92.2,74Z"/></g></g></svg>