<svg xmlns="http://www.w3.org/2000/svg" viewBox="0 0 128 128"><defs><style>.cls-1{fill:#6da9e3;}.cls-2{fill:#fff;}</style></defs><g id="Layer_2" data-name="Layer 2"><g id="Layer_1-2" data-name="Layer 1"><rect class="cls-1" width="128" height="128" rx="16.07"/><path class="cls-2" d="M84,24H44A20,20,0,0,0,24,44V84a20,20,0,0,0,20,20H84a20,20,0,0,0,20-20V44A20,20,0,0,0,84,24Zm6.47,31.79-6,7a7.46,7.46,0,0,1-5.7,2.65,7.57,7.57,0,0,1-4-1.14A21.31,21.31,0,0,0,64,60.86,21.3,21.3,0,0,0,53.17,64.3a7.48,7.48,0,0,1-9.68-1.51l-6-7a9,9,0,0,1,.81-12.55,38.12,38.12,0,0,1,51.32,0A9,9,0,0,1,90.47,55.79Z"/><path class="cls-2" d="M59.39,41.93l12.24,20a8.24,8.24,0,0,1,.84,2.46,7.91,7.91,0,0,1-15.61,2.54L54.47,43.6a2.68,2.68,0,0,1,1.36-2.76A2.64,2.64,0,0,1,59.39,41.93Z"/></g></g></svg>