<svg xmlns="http://www.w3.org/2000/svg" viewBox="0 0 128 128"><defs><style>.cls-1{fill:#e38056;}.cls-2{fill:#fff;}</style></defs><g id="Layer_2" data-name="Layer 2"><g id="Layer_1-2" data-name="Layer 1"><rect class="cls-1" width="128" height="128" rx="16.07"/><path class="cls-2" d="M101.49,39.67,88.33,26.51h0A8.53,8.53,0,0,0,82.27,24H35.43A11.43,11.43,0,0,0,24,35.43V92.57A11.43,11.43,0,0,0,35.43,104H92.57A11.43,11.43,0,0,0,104,92.57V45.73A8.53,8.53,0,0,0,101.49,39.67ZM39.71,38.29H71.14a1.43,1.43,0,0,1,1.43,1.42v8.58a1.43,1.43,0,0,1-1.43,1.42H39.71a1.43,1.43,0,0,1-1.42-1.42V39.71A1.43,1.43,0,0,1,39.71,38.29Zm25,57.12a14.29,14.29,0,1,1,13.6-14.94c0,.45,0,.9,0,1.34A14.3,14.3,0,0,1,64.67,95.41Z"/><circle class="cls-2" cx="64" cy="81.14" r="8.57"/></g></g></svg>