<svg xmlns="http://www.w3.org/2000/svg" viewBox="0 0 128 128"><defs><style>.cls-1{fill:#6da9e3;}.cls-2{fill:#fff;}</style></defs><g id="Layer_2" data-name="Layer 2"><g id="Layer_1-2" data-name="Layer 1"><rect class="cls-1" width="128" height="128" rx="16.07"/><path class="cls-2" d="M85.05,33.07H42a3.08,3.08,0,1,1,0-6.15H85.05a3.08,3.08,0,0,1,0,6.15Z"/><path class="cls-2" d="M91.2,42.3H35.82a3.08,3.08,0,1,1,0-6.15H91.2a3.08,3.08,0,1,1,0,6.15Z"/><path class="cls-2" d="M94.88,100.76H32.14a8.63,8.63,0,0,1-8.63-8.63V54a8.63,8.63,0,0,1,8.63-8.63H94.88A8.64,8.64,0,0,1,103.51,54V92.13A8.64,8.64,0,0,1,94.88,100.76Z"/></g></g></svg>