<svg xmlns="http://www.w3.org/2000/svg" viewBox="0 0 128 128"><defs><style>.cls-1{fill:#8bbd5b;}.cls-2{fill:#fff;}</style></defs><g id="Layer_2" data-name="Layer 2"><g id="Layer_1-2" data-name="Layer 1"><rect class="cls-1" width="128" height="128" rx="16.07"/><path class="cls-2" d="M88.68,53.56a53.5,53.5,0,0,0-9.53-16.07C72.07,29.29,62.76,24,55.43,24a2.86,2.86,0,0,0-2.86,2.86,2.82,2.82,0,0,0,.09.71C55.14,37,50,44.91,44.57,53.24c-4.5,6.9-9.14,14-9.14,22.19a28.57,28.57,0,0,0,57.14,0A61.26,61.26,0,0,0,88.68,53.56ZM69.77,93.05a8.18,8.18,0,0,1-11.54,0c-1.85-2-2.8-5.08-2.8-9,0-4.49,1.57-7.91,3.09-11.21a35.26,35.26,0,0,0,2.33-6,1.42,1.42,0,0,1,1.73-1,1.75,1.75,0,0,1,.5.23,22.79,22.79,0,0,1,4.31,4.41c3.25,4.28,5.18,9.36,5.18,13.57C72.57,88,71.6,91.1,69.77,93.05Z"/></g></g></svg>