<svg xmlns="http://www.w3.org/2000/svg" viewBox="0 0 128 128"><defs><style>.cls-1{fill:#8bbd5b;}.cls-2{fill:#fff;}</style></defs><g id="Layer_2" data-name="Layer 2"><g id="Layer_1-2" data-name="Layer 1"><rect class="cls-1" width="128" height="128" rx="16.07"/><path class="cls-2" d="M35.66,56.06H26.91a2.92,2.92,0,0,1,0-5.83h8.75a2.92,2.92,0,0,1,0,5.83Z"/><path class="cls-2" d="M40.77,43.69a2.89,2.89,0,0,1-2.05-.86l-6.18-6.17a2.91,2.91,0,1,1,4.12-4.12l6.17,6.18a2.92,2.92,0,0,1-2.06,5Z"/><path class="cls-2" d="M53.14,38.57a2.92,2.92,0,0,1-2.91-2.91V26.91a2.92,2.92,0,0,1,5.83,0v8.75A2.93,2.93,0,0,1,53.14,38.57Z"/><path class="cls-2" d="M65.51,43.69a2.92,2.92,0,0,1-2.91-2.92,2.88,2.88,0,0,1,.85-2.05l6.18-6.18a2.91,2.91,0,1,1,4.11,4.12l-6.17,6.17A2.93,2.93,0,0,1,65.51,43.69Z"/><path class="cls-2" d="M34.6,74.6a2.91,2.91,0,0,1-2.06-5l6.18-6.18a2.91,2.91,0,1,1,4.11,4.12l-6.17,6.17A2.92,2.92,0,0,1,34.6,74.6Z"/><path class="cls-2" d="M60.83,48.59A8.66,8.66,0,0,0,48.46,60.7l.13.13L55.78,68a1.45,1.45,0,0,0,2.06,0L68,57.84a1.45,1.45,0,0,0,0-2.06Z"/><path class="cls-2" d="M101.41,89.17,74.2,62a1.45,1.45,0,0,0-2.06,0L62,72.14a1.45,1.45,0,0,0,0,2.06l27.21,27.21A8.66,8.66,0,1,0,101.54,89.3a1.59,1.59,0,0,0-.13-.13Z"/></g></g></svg>