<svg xmlns="http://www.w3.org/2000/svg" viewBox="0 0 128 128"><defs><style>.cls-1{fill:#e38056;}.cls-2{fill:#fff;}</style></defs><g id="Layer_2" data-name="Layer 2"><g id="Layer_1-2" data-name="Layer 1"><rect class="cls-1" width="128" height="128" rx="16.07"/><path class="cls-2" d="M94,32.57H34a10,10,0,0,0-10,10V85.43a10,10,0,0,0,10,10H94a10,10,0,0,0,10-10V42.57A10,10,0,0,0,94,32.57ZM91.47,49.11l-25.72,20a2.85,2.85,0,0,1-3.5,0l-25.72-20A2.86,2.86,0,1,1,40,44.55l.06.05L64,63.24,88,44.6a2.86,2.86,0,0,1,3.51,4.51Z"/></g></g></svg>