<svg xmlns="http://www.w3.org/2000/svg" viewBox="0 0 128 128"><defs><style>.cls-1{fill:#8bbd5b;}.cls-2{fill:#fff;}</style></defs><g id="Layer_2" data-name="Layer 2"><g id="Layer_1-2" data-name="Layer 1"><rect class="cls-1" width="128" height="128" rx="16.07"/><circle class="cls-2" cx="64.05" cy="63.96" r="8.35"/><path class="cls-2" d="M101.33,71.61l-.08-.07-5.49-4.3a2.82,2.82,0,0,1-1.06-2.32v-2a2.79,2.79,0,0,1,1.07-2.3l5.48-4.3.08-.07a4.63,4.63,0,0,0,1-5.92L94.93,37.46l0,0a4.67,4.67,0,0,0-5.64-2l-.06,0-6.46,2.6a2.76,2.76,0,0,1-2.51-.23c-.57-.35-1.15-.69-1.74-1a2.77,2.77,0,0,1-1.43-2.06l-1-6.89,0-.12A4.73,4.73,0,0,0,71.49,24H56.61A4.69,4.69,0,0,0,52,27.85V28l-1,6.9a2.77,2.77,0,0,1-1.42,2q-.88.48-1.74,1a2.76,2.76,0,0,1-2.5.22l-6.46-2.61-.06,0a4.67,4.67,0,0,0-5.65,2l0,0L25.74,50.37a4.65,4.65,0,0,0,1,5.94l.09.06,5.48,4.31A2.77,2.77,0,0,1,33.39,63v2a2.77,2.77,0,0,1-1.06,2.3l-5.48,4.31-.09.07a4.64,4.64,0,0,0-1,5.92l7.43,12.85a.08.08,0,0,0,0,0,4.65,4.65,0,0,0,5.64,2l.06,0,6.45-2.59a2.78,2.78,0,0,1,2.52.22c.57.36,1.15.7,1.73,1a2.76,2.76,0,0,1,1.43,2L52,100l0,.13a4.73,4.73,0,0,0,4.6,3.81H71.49a4.69,4.69,0,0,0,4.6-3.9V100l1-6.9A2.79,2.79,0,0,1,78.49,91c.6-.32,1.18-.66,1.74-1a2.79,2.79,0,0,1,2.51-.22l6.46,2.6.06,0a4.66,4.66,0,0,0,5.65-2,.08.08,0,0,1,0,0l7.43-12.85A4.64,4.64,0,0,0,101.33,71.61ZM78,64.61a13.95,13.95,0,1,1,0-1.23Q78,64,78,64.61Z"/></g></g></svg>