<svg xmlns="http://www.w3.org/2000/svg" viewBox="0 0 128 128"><defs><style>.cls-1{fill:#8bbd5b;}.cls-2{fill:#fff;}</style></defs><g id="Layer_2" data-name="Layer 2"><g id="Layer_1-2" data-name="Layer 1"><rect class="cls-1" width="128" height="128" rx="16.07"/><path class="cls-2" d="M25.56,77.46a6.66,6.66,0,0,0,0,9.42L40.67,102h0a6.66,6.66,0,0,0,9.42,0L62.61,89.47,38.07,64.94Z"/><path class="cls-2" d="M103.61,45.79a6.65,6.65,0,0,0-2-4.73L86.48,25.89a6.69,6.69,0,0,0-9.46,0L64.94,38,89.56,62.6l12.09-12.08A6.67,6.67,0,0,0,103.61,45.79Z"/><path class="cls-2" d="M66.45,85.64,85.78,66.3,61.23,41.77,41.9,61.1Zm3.27-23.59a2.67,2.67,0,1,1,0,3.77h0A2.67,2.67,0,0,1,69.72,62.05Zm-8-8a2.67,2.67,0,1,1,0,3.77h0A2.67,2.67,0,0,1,61.72,54.05Zm0,16a2.67,2.67,0,1,1,0,3.77h0A2.67,2.67,0,0,1,61.72,70.05Zm-4.23-8a2.67,2.67,0,1,1-3.77,0h0A2.67,2.67,0,0,1,57.49,62.05Z"/></g></g></svg>