<svg xmlns="http://www.w3.org/2000/svg" viewBox="0 0 128 128"><defs><style>.cls-1{fill:#e38056;}.cls-2{fill:#fff;}</style></defs><g id="Layer_2" data-name="Layer 2"><g id="Layer_1-2" data-name="Layer 1"><rect class="cls-1" width="128" height="128" rx="16.07"/><path class="cls-2" d="M93.22,36.3H35.15A11.16,11.16,0,0,0,24,47.45V77.84A10.77,10.77,0,0,0,34.76,88.6H36.3v7.64A7.75,7.75,0,0,0,44.05,104H83.93a7.75,7.75,0,0,0,7.75-7.75h0V88.6h1.54A10.77,10.77,0,0,0,104,77.84V47.07A10.77,10.77,0,0,0,93.22,36.3ZM85.53,96.24a1.61,1.61,0,0,1-1.6,1.6H44.05a1.62,1.62,0,0,1-1.6-1.6V65.59a1.61,1.61,0,0,1,1.6-1.6H83.93a1.6,1.6,0,0,1,1.6,1.6Zm5-41.5a4.61,4.61,0,1,1,4.23-4.23A4.61,4.61,0,0,1,90.53,54.74Z"/><path class="cls-2" d="M80.92,24H47.07a10.79,10.79,0,0,0-10.66,9.23H91.57A10.78,10.78,0,0,0,80.92,24Z"/></g></g></svg>