<svg xmlns="http://www.w3.org/2000/svg" viewBox="0 0 128 128"><defs><style>.cls-1{fill:#8bbd5b;}.cls-2{fill:#fff;}</style></defs><g id="Layer_2" data-name="Layer 2"><g id="Layer_1-2" data-name="Layer 1"><rect class="cls-1" width="128" height="128" rx="16.07"/><rect class="cls-2" x="46.39" y="46.74" width="34.29" height="34.29" rx="1.43"/><path class="cls-2" d="M100.67,52.46a2.86,2.86,0,0,0,0-5.72H97.81V41A11.44,11.44,0,0,0,86.39,29.6H80.67V26.74a2.86,2.86,0,0,0-5.71,0V29.6H66.39V26.74a2.86,2.86,0,0,0-5.72,0V29.6H52.1V26.74a2.86,2.86,0,0,0-5.71,0V29.6H40.67A11.45,11.45,0,0,0,29.24,41v5.71H26.39a2.86,2.86,0,0,0,0,5.72h2.85V61H26.39a2.86,2.86,0,1,0,0,5.71h2.85v8.57H26.39a2.86,2.86,0,1,0,0,5.72h2.85v5.71A11.45,11.45,0,0,0,40.67,98.17h5.72V101a2.86,2.86,0,1,0,5.71,0V98.17h8.57V101a2.86,2.86,0,0,0,5.72,0V98.17H75V101a2.86,2.86,0,1,0,5.71,0V98.17h5.72A11.44,11.44,0,0,0,97.81,86.74V81h2.86a2.86,2.86,0,0,0,0-5.72H97.81V66.74h2.86a2.86,2.86,0,1,0,0-5.71H97.81V52.46ZM86.39,81a5.72,5.72,0,0,1-5.72,5.71H46.39A5.72,5.72,0,0,1,40.67,81V46.74A5.72,5.72,0,0,1,46.39,41H80.67a5.72,5.72,0,0,1,5.72,5.71Z"/></g></g></svg>