<svg xmlns="http://www.w3.org/2000/svg" viewBox="0 0 128 128"><defs><style>.cls-1{fill:#8bbd5b;}.cls-2{fill:#fff;}</style></defs><g id="Layer_2" data-name="Layer 2"><g id="Layer_1-2" data-name="Layer 1"><rect class="cls-1" width="128" height="128" rx="16.07"/><path class="cls-2" d="M77,46.28a4.78,4.78,0,1,0,3.37,1.4A4.78,4.78,0,0,0,77,46.28Z"/><path class="cls-2" d="M103.54,27.22h0a3.63,3.63,0,0,0-2.7-2.73c-5.32-1.3-13.69.08-23,3.8s-18.11,9.28-24,15.21a57.33,57.33,0,0,0-5.28,6A23.26,23.26,0,0,0,38.1,51.22c-10.31,4.53-13.25,16.15-14,20.91a4.46,4.46,0,0,0,3.67,5.14,4.31,4.31,0,0,0,1.19,0h0l11.49-1.25c0,.15,0,.28,0,.4a6.12,6.12,0,0,0,1.77,3.7l5.6,5.61a6.15,6.15,0,0,0,3.7,1.77l.39,0L50.68,99.05v0a4.46,4.46,0,0,0,4,4.9l.41,0a4.52,4.52,0,0,0,.74-.06c4.8-.77,16.4-3.68,20.93-14a23.71,23.71,0,0,0,1.69-10.41,57.44,57.44,0,0,0,6.06-5.28c6-5.94,11.52-14.63,15.23-23.85S104.81,32.75,103.54,27.22ZM84.42,58.45a10.49,10.49,0,1,1,0-14.84h0a10.41,10.41,0,0,1,.12,14.72Z"/><path class="cls-2" d="M47.2,87.29a2.89,2.89,0,0,0-2,.48c-1.15.78-2.29,1.55-3.45,2.3A2.66,2.66,0,0,1,38,86.5l2.17-3.75a2.85,2.85,0,0,0-.75-4,2.89,2.89,0,0,0-2-.48,11,11,0,0,0-6.36,3.12c-.65.66-2.64,2.65-3.71,10.23a65.48,65.48,0,0,0-.58,6.56,2.86,2.86,0,0,0,2.79,2.93h.14a60.42,60.42,0,0,0,6.58-.57c7.58-1.07,9.57-3.06,10.22-3.71a10.82,10.82,0,0,0,3.11-6.38A2.87,2.87,0,0,0,47.2,87.29Z"/></g></g></svg>