<svg xmlns="http://www.w3.org/2000/svg" viewBox="0 0 128 128"><defs><style>.cls-1{fill:#6da9e3;}.cls-2{fill:#fff;}</style></defs><g id="Layer_2" data-name="Layer 2"><g id="Layer_1-2" data-name="Layer 1"><rect class="cls-1" width="128" height="128" rx="16.07"/><path class="cls-2" d="M94.71,58.29h-25a8.58,8.58,0,0,1-8.57-8.58v-25a.71.71,0,0,0-.71-.71H44A11.43,11.43,0,0,0,32.57,35.43V92.57A11.43,11.43,0,0,0,44,104H84A11.43,11.43,0,0,0,95.43,92.57V59A.71.71,0,0,0,94.71,58.29ZM78.29,86.86H49.71a2.86,2.86,0,0,1,0-5.72H78.29a2.86,2.86,0,0,1,0,5.72Zm0-14.29H49.71a2.86,2.86,0,0,1,0-5.71H78.29a2.86,2.86,0,0,1,0,5.71Z"/><path class="cls-2" d="M93.15,52,67.47,26.28a.36.36,0,0,0-.51,0,.35.35,0,0,0-.1.25V49.71a2.86,2.86,0,0,0,2.85,2.86H92.89a.36.36,0,0,0,.36-.36A.39.39,0,0,0,93.15,52Z"/></g></g></svg>