<svg xmlns="http://www.w3.org/2000/svg" viewBox="0 0 128 128"><defs><style>.cls-1{fill:#6da9e3;}.cls-2{fill:#fff;}</style></defs><g id="Layer_2" data-name="Layer 2"><g id="Layer_1-2" data-name="Layer 1"><rect class="cls-1" width="128" height="128" rx="16.07"/><path class="cls-2" d="M103.49,47.25c0-7-5.18-12.69-11.57-12.69C83.26,34.15,74.44,34,65.41,34H62.6c-9,0-17.85.15-26.5.56-6.38,0-11.55,5.69-11.55,12.72C24.16,52.84,24,58.4,24,64s.16,11.13.53,16.7c0,7,5.17,12.74,11.55,12.74,9.1.42,18.42.61,27.91.59s18.8-.17,27.91-.59c6.39,0,11.56-5.71,11.56-12.74.38-5.58.55-11.14.54-16.72S103.86,52.82,103.49,47.25ZM56.35,79.3V48.59L79,63.94Z"/></g></g></svg>