<svg xmlns="http://www.w3.org/2000/svg" viewBox="0 0 128 128"><defs><style>.cls-1{fill:#e38056;}.cls-2{fill:#fff;}</style></defs><g id="Layer_2" data-name="Layer 2"><g id="Layer_1-2" data-name="Layer 1"><rect class="cls-1" width="128" height="128" rx="16.07"/><path class="cls-2" d="M71.49,28h-15A1.49,1.49,0,0,0,55,29.45V34H73v-4.5A1.48,1.48,0,0,0,71.53,28Z"/><path class="cls-2" d="M95.42,35.42H78.28V31.13A7.14,7.14,0,0,0,71.14,24H56.85a7.14,7.14,0,0,0-7.14,7.14v4.29H32.56a2.86,2.86,0,0,0,0,5.71h3L39,95.58A8.62,8.62,0,0,0,47.56,104H80.42A8.57,8.57,0,0,0,89,95.6l3.4-54.47h3a2.86,2.86,0,1,0,0-5.71ZM52.67,92.56h-.11a2.85,2.85,0,0,1-2.85-2.75l-1.43-40A2.86,2.86,0,1,1,54,49.6l1.43,40a2.85,2.85,0,0,1-2.75,3ZM66.85,89.7a2.86,2.86,0,1,1-5.71,0v-40a2.86,2.86,0,0,1,5.71,0Zm5.71-54.28H55.42V31.13a1.42,1.42,0,0,1,1.4-1.43H71.14a1.41,1.41,0,0,1,1.42,1.4v4.32Zm5.72,54.39a2.86,2.86,0,0,1-2.86,2.75h-.1a2.87,2.87,0,0,1-2.76-3h0L74,49.6a2.86,2.86,0,0,1,5.72.21Z"/></g></g></svg>